<svg t="1760270060624" class="icon" viewBox="0 0 1024 1024" version="1.1" xmlns="http://www.w3.org/2000/svg" p-id="1515" width="200" height="200"><path d="M557.255 50.966l415.779 415.78c24.993 24.993 24.993 65.515 0 90.509l-415.78 415.779c-24.993 24.993-65.515 24.993-90.509 0L50.966 557.254c-24.993-24.993-24.993-65.515 0-90.509l415.78-415.779c24.993-24.993 65.515-24.993 90.509 0zM512 96.221l-90.414 90.413 72.041 72.042a63.948 63.948 0 0 1 17.315-2.667L512 256c35.346 0 64 28.654 64 64 0 6.385-0.935 12.552-2.676 18.372l112.303 112.304A64.007 64.007 0 0 1 704 448c35.346 0 64 28.654 64 64 0 35.346-28.654 64-64 64-35.346 0-64-28.654-64-64a63.837 63.837 0 0 1 4.397-23.36L540.09 384.336l0.376 262.329c20.765 10.33 35.124 31.607 35.524 56.278L576 704c0 35.346-28.654 64-64 64-35.346 0-64-28.654-64-64 0-25.489 14.9-47.498 36.466-57.79l-0.384-268.604C462.724 367.236 448 345.337 448 320a63.837 63.837 0 0 1 4.397-23.36l-70.409-70.408L96.221 512 512 927.779 927.779 512 512 96.221z" p-id="1516"></path></svg>